<?xml version="1.0" encoding="UTF-8" standalone="no"?>
<!-- Created with Inkscape (http://www.inkscape.org/) -->

<svg
   xmlns:dc="http://purl.org/dc/elements/1.1/"
   xmlns:cc="http://creativecommons.org/ns#"
   xmlns:rdf="http://www.w3.org/1999/02/22-rdf-syntax-ns#"
   xmlns:svg="http://www.w3.org/2000/svg"
   xmlns="http://www.w3.org/2000/svg"
   xmlns:sodipodi="http://sodipodi.sourceforge.net/DTD/sodipodi-0.dtd"
   xmlns:inkscape="http://www.inkscape.org/namespaces/inkscape"
   width="256"
   height="256"
   viewBox="0 0 67.733332 67.733335"
   version="1.1"
   id="svg8"
   sodipodi:docname="oxalis.svg"
   inkscape:version="0.92.2 2405546, 2018-03-11">
  <defs
     id="defs2" />
  <sodipodi:namedview
     id="base"
     pagecolor="#ffffff"
     bordercolor="#666666"
     borderopacity="1.0"
     inkscape:pageopacity="0.0"
     inkscape:pageshadow="2"
     inkscape:zoom="2.8"
     inkscape:cx="114.81465"
     inkscape:cy="129.34954"
     inkscape:document-units="mm"
     inkscape:current-layer="layer1"
     showgrid="false"
     units="px"
     inkscape:window-width="1920"
     inkscape:window-height="1013"
     inkscape:window-x="1366"
     inkscape:window-y="0"
     inkscape:window-maximized="1" />
  <metadata
     id="metadata5">
    <rdf:RDF>
      <cc:Work
         rdf:about="">
        <dc:format>image/svg+xml</dc:format>
        <dc:type
           rdf:resource="http://purl.org/dc/dcmitype/StillImage" />
        <dc:title></dc:title>
      </cc:Work>
    </rdf:RDF>
  </metadata>
  <g
     inkscape:label="Layer 1"
     inkscape:groupmode="layer"
     id="layer1"
     transform="translate(0,-229.26665)">
    <path
       style="fill:#008000;fill-rule:nonzero;stroke:none;stroke-width:0.1;stroke-miterlimit:4;stroke-dasharray:none"
       d="m 15.122722,240.2708 c -3.859835,2.13236 -5.2603508,6.98991 -3.128204,10.84986 2.132214,3.86015 17.086919,12.72813 20.947047,10.59588 1.570034,-0.86791 -0.695478,1.65367 0,0 1.765725,0.29094 -1.567867,0.86268 0,0 3.860011,-2.13246 3.807199,-19.23243 1.674699,-23.09243 -2.132361,-3.85983 -6.989914,-5.26035 -10.849865,-3.1282 -1.569894,0.86768 -2.80189,2.23871 -3.49745,3.89207 -1.765874,-0.29077 -3.578225,0.0201 -5.146227,0.88282 z"
       id="path815"
       inkscape:connector-curvature="0"
       sodipodi:nodetypes="ccccccccc" />
    <path
       style="fill:#008000;fill-rule:nonzero;stroke:none;stroke-width:0.1;stroke-miterlimit:4;stroke-dasharray:none"
       d="m 56.350397,244.32461 c -2.13236,-3.85983 -6.989912,-5.26035 -10.849867,-3.12821 -3.860153,2.13222 -12.728129,17.08692 -10.595878,20.94706 0.86791,1.57003 -1.653665,-0.69548 0,0 -0.290935,1.76572 -0.862682,-1.56787 0,0 2.132457,3.86001 19.232434,3.8072 23.092428,1.67469 3.859834,-2.13236 5.260348,-6.98991 3.128198,-10.84986 -0.867676,-1.5699 -2.238702,-2.80189 -3.892071,-3.49745 0.290772,-1.76588 -0.02013,-3.57822 -0.88281,-5.14623 z"
       id="path815-6"
       inkscape:connector-curvature="0"
       sodipodi:nodetypes="ccccccccc" />
    <path
       style="fill:#008000;fill-rule:nonzero;stroke:none;stroke-width:0.1;stroke-miterlimit:4;stroke-dasharray:none"
       d="m 52.122492,285.43256 c 3.859829,-2.13237 5.260343,-6.98992 3.128202,-10.84988 -2.132216,-3.86015 -17.086919,-12.72813 -20.947053,-10.59588 -1.570028,0.86791 0.695478,-1.65366 0,0 -1.765725,-0.29093 1.567866,-0.86268 0,0 -3.860009,2.13246 -3.807199,19.23244 -1.674693,23.09243 2.13236,3.85984 6.989911,5.26035 10.849866,3.12821 1.569953,-0.86757 2.801887,-2.23871 3.497448,-3.89208 1.765875,0.29077 3.57822,-0.0201 5.14623,-0.8828 z"
       id="path815-6-7"
       inkscape:connector-curvature="0"
       sodipodi:nodetypes="ccccccccc" />
    <path
       style="fill:#008000;fill-rule:nonzero;stroke:none;stroke-width:0.1;stroke-miterlimit:4;stroke-dasharray:none"
       d="m 10.940494,281.46146 c 2.132368,3.85983 6.98992,5.26034 10.849876,3.1282 3.860152,-2.13222 12.728128,-17.08692 10.595877,-20.94705 -0.86791,-1.57003 1.653666,0.69547 0,0 0.290935,-1.76573 0.862683,1.56786 0,0 -2.132457,-3.86001 -19.232434,-3.8072 -23.0924264,-1.6747 -3.8598351,2.13236 -5.2603492,6.98991 -3.1282081,10.84987 0.8675711,1.56995 2.2387104,2.80189 3.8920795,3.49745 -0.2907721,1.76587 0.02013,3.57822 0.882802,5.14623 z"
       id="path815-6-5"
       inkscape:connector-curvature="0"
       sodipodi:nodetypes="ccccccccc" />
    <circle
       style="fill:#00ff00;fill-rule:nonzero;stroke:none;stroke-width:0.1;stroke-miterlimit:4;stroke-dasharray:none"
       id="path918"
       cx="33.592636"
       cy="262.74588"
       r="1.1811756" />
  </g>
</svg>
